<svg width="46" height="56" viewBox="0 0 46 56" fill="none" xmlns="http://www.w3.org/2000/svg">
<g id="Capa 2">
<g id="Capa 1">
<path id="Vector" d="M32.9078 -0.000244141H22.7341V11.7044H32.9078V-0.000244141Z" fill="white"/>
<path id="Vector_2" d="M22.7342 21.2239H32.9079V37.7315C32.9544 41.7036 31.8239 45.6 29.6602 48.9252C27.5237 52.1559 23.3994 55.9998 15.7692 55.9998C7.45808 55.9998 2.61385 52.0695 0 49.9156L6.41724 41.9998C8.96848 44.0829 11.4258 45.7966 15.8083 45.7966C19.1265 45.7966 20.4491 44.4445 21.2238 43.2654C22.2771 41.6277 22.8219 39.7124 22.789 37.7629L22.7342 21.2239Z" fill="white"/>
<path id="Vector_3" d="M17.5456 13.8347H7.37195V24.0537H17.5456V13.8347Z" fill="white"/>
<path id="Vector_4" d="M38.2373 51.2047C38.2373 53.3821 37.1338 54.5534 35.5921 54.5534C34.0504 54.5534 33.0409 53.162 33.0409 51.3147C33.0409 49.4675 34.0817 48.0054 35.6782 48.0054C37.2747 48.0054 38.2373 49.4439 38.2373 51.2047ZM34.2226 51.2912C34.2226 52.6039 34.7469 53.5708 35.6469 53.5708C36.5469 53.5708 37.0556 52.5489 37.0556 51.2126C37.0556 50.0413 36.586 48.9408 35.6469 48.9408C34.7078 48.9408 34.2226 50.002 34.2226 51.2912Z" fill="white"/>
<path id="Vector_5" d="M40.2564 48.0999V54.4513H39.1295V48.0999H40.2564Z" fill="white"/>
<path id="Vector_6" d="M41.4773 54.4513V48.0999H42.7294L44.0755 50.7175C44.422 51.4019 44.7303 52.1053 44.9989 52.8242C44.9285 52.0381 44.8972 51.1341 44.8972 50.1279V48.0999H45.9302V54.4513H44.7642L43.4025 51.7787C43.0419 51.0766 42.7206 50.3549 42.4399 49.617C42.4399 50.4031 42.4947 51.2913 42.4947 52.384V54.4435L41.4773 54.4513Z" fill="white"/>
</g>
</g>
</svg>
